<?xml version="1.0" encoding="UTF-8"?>
<svg width="128px" height="128px" viewBox="0 0 128 128" version="1.1" xmlns="http://www.w3.org/2000/svg" xmlns:xlink="http://www.w3.org/1999/xlink">
    <!-- Generator: Sketch 43.1 (39012) - http://www.bohemiancoding.com/sketch -->
    <title>icon-search</title>
    <desc>Created with Sketch.</desc>
    <defs></defs>
    <g id="Page-1" stroke="none" stroke-width="1" fill="none" fill-rule="evenodd">
        <g id="16x16-(144)-fill" transform="translate(-8.000000, -8.000000)">
            <g id="_slices" transform="translate(8.000000, 8.000000)"></g>
            <g id="search" transform="translate(8.000000, 8.000000)" fill-rule="nonzero" fill="#000000">
                <path d="M46.3431458,70.3431458 L2.34314575,114.343146 C-0.781048584,117.46734 -0.781048584,122.53266 2.34314575,125.656854 C5.46734008,128.781049 10.5326599,128.781049 13.6568542,125.656854 L57.6568542,81.6568542 C60.7810486,78.5326599 60.7810486,73.4673401 57.6568542,70.3431458 C54.5326599,67.2189514 49.4673401,67.2189514 46.3431458,70.3431458 Z" id="Line"></path>
                <path d="M80,80 C97.7029463,80 112,65.6911262 112,48 C112,30.3075053 97.7052107,16 80,16 C62.2947893,16 48,30.3075053 48,48 C48,56.5320158 51.4831767,64.661849 57.5546468,70.6847074 C63.6033879,76.6850187 71.370606,80 80,80 Z M32,48 C32,21.4741325 53.455047,-9.41469125e-14 80,-2.27373675e-13 C106.544953,-3.60600438e-13 128,21.4741325 128,48 C128,74.5247236 106.542464,96 80,96 C67.0741988,96 55.281859,90.9671317 46.2865035,82.0437983 C37.2267639,73.0565963 32,60.857181 32,48 Z" id="Oval-2"></path>
            </g>
        </g>
    </g>
</svg>