<?xml version="1.0" encoding="UTF-8"?>
<svg width="128px" height="128px" viewBox="0 0 128 128" version="1.1" xmlns="http://www.w3.org/2000/svg" xmlns:xlink="http://www.w3.org/1999/xlink">
    <!-- Generator: Sketch 43.1 (39012) - http://www.bohemiancoding.com/sketch -->
    <title>icon-close</title>
    <desc>Created with Sketch.</desc>
    <defs></defs>
    <g id="Page-1" stroke="none" stroke-width="1" fill="none" fill-rule="evenodd">
        <g id="16x16-(144)-fill" transform="translate(-152.000000, -8.000000)">
            <g id="_slices" transform="translate(8.000000, 8.000000)"></g>
            <g id="close" transform="translate(152.000000, 8.000000)" fill-rule="nonzero" fill="#000000">
                <path d="M52.6862915,64 L2.34314575,114.343146 C-0.781048584,117.46734 -0.781048584,122.53266 2.34314575,125.656854 C5.46734008,128.781049 10.5326599,128.781049 13.6568542,125.656854 L64,75.3137085 L114.343146,125.656854 C117.46734,128.781049 122.53266,128.781049 125.656854,125.656854 C128.781049,122.53266 128.781049,117.46734 125.656854,114.343146 L75.3137085,64 L125.656854,13.6568542 C128.781049,10.5326599 128.781049,5.46734008 125.656854,2.34314575 C122.53266,-0.781048584 117.46734,-0.781048584 114.343146,2.34314575 L64,52.6862915 L13.6568542,2.34314575 C10.5326599,-0.781048584 5.46734008,-0.781048584 2.34314575,2.34314575 C-0.781048584,5.46734008 -0.781048584,10.5326599 2.34314575,13.6568542 L52.6862915,64 Z" id="Combined-Shape"></path>
            </g>
        </g>
    </g>
</svg>