<svg xmlns="http://www.w3.org/2000/svg" width="72" height="72" viewBox="0 0 72 72" preserveAspectRatio="xMidYMid meet"><circle cx="20.197" cy="19.736" r="2.724" fill="#ea5a47"/><path fill="#d22f27" d="M21.276 17.057a2.72 2.72 0 0 1-3.758 3.76a2.722 2.722 0 1 0 3.758-3.76z"/><circle cx="30.834" cy="19.736" r="2.724" fill="#ea5a47"/><path fill="#d22f27" d="M31.914 17.057a2.72 2.72 0 0 1-3.759 3.76a2.722 2.722 0 1 0 3.759-3.76z"/><circle cx="37.697" cy="19.736" r="2.724" fill="#ea5a47"/><path fill="#d22f27" d="M38.777 17.057a2.72 2.72 0 0 1-3.76 3.76a2.722 2.722 0 1 0 3.76-3.76z"/><circle cx="45.246" cy="19.736" r="2.724" fill="#ea5a47"/><path fill="#d22f27" d="M46.326 17.057a2.72 2.72 0 0 1-3.76 3.76a2.722 2.722 0 1 0 3.76-3.76z"/><circle cx="23.931" cy="30.374" r="2.724" fill="#fcea2b"/><path fill="#f1b31c" d="M25.01 27.695a2.72 2.72 0 0 1-3.758 3.758a2.722 2.722 0 1 0 3.759-3.758z"/><circle cx="31.137" cy="30.374" r="2.724" fill="#fcea2b"/><path fill="#f1b31c" d="M32.217 27.695a2.72 2.72 0 0 1-3.76 3.758a2.722 2.722 0 1 0 3.76-3.758z"/><circle cx="47.264" cy="30.374" r="2.724" fill="#fcea2b"/><path fill="#f1b31c" d="M48.344 27.695a2.72 2.72 0 0 1-3.759 3.758a2.722 2.722 0 1 0 3.76-3.758z"/><circle cx="54.814" cy="30.374" r="2.724" fill="#fcea2b"/><path fill="#f1b31c" d="M55.893 27.695a2.72 2.72 0 0 1-3.759 3.758a2.722 2.722 0 1 0 3.76-3.758z"/><circle cx="23.931" cy="41.011" r="2.724" fill="#f4aa41"/><path fill="#e27022" d="M25.01 38.332a2.72 2.72 0 0 1-3.758 3.759a2.722 2.722 0 1 0 3.759-3.759z"/><circle cx="31.137" cy="41.011" r="2.724" fill="#f4aa41"/><path fill="#e27022" d="M32.217 38.332a2.72 2.72 0 0 1-3.76 3.759a2.722 2.722 0 1 0 3.76-3.759z"/><circle cx="41.088" cy="41.011" r="2.724" fill="#f4aa41"/><path fill="#e27022" d="M42.168 38.332a2.72 2.72 0 0 1-3.76 3.759a2.722 2.722 0 1 0 3.76-3.759z"/><circle cx="51.423" cy="41.011" r="2.724" fill="#f4aa41"/><path fill="#e27022" d="M52.502 38.332a2.72 2.72 0 0 1-3.759 3.759a2.722 2.722 0 1 0 3.76-3.759z"/><g fill="none" stroke="#000"><path stroke-linecap="round" stroke-linejoin="round" stroke-width="2" d="M12.092 58.874v-46"/><path stroke-linecap="round" stroke-linejoin="round" stroke-width="2" d="M48.651 19.737l10.895-.001"/><path stroke-linecap="round" stroke-linejoin="round" stroke-width="2" d="M41.023 19.737h.869"/><path stroke-linecap="round" stroke-linejoin="round" stroke-width="2" d="M34.144 19.737h.263"/><path stroke-linecap="round" stroke-linejoin="round" stroke-width="2" d="M23.586 19.737h3.887"/><path stroke-linecap="round" stroke-linejoin="round" stroke-width="2" d="M12.859 19.737h4.032"/><path stroke-linecap="round" stroke-linejoin="round" stroke-width="2" d="M59.908 58.874v-46"/><circle cx="20.197" cy="19.736" r="2.724" stroke-miterlimit="10" stroke-width="1.362"/><circle cx="30.834" cy="19.736" r="2.724" stroke-miterlimit="10" stroke-width="1.362"/><circle cx="37.697" cy="19.736" r="2.724" stroke-miterlimit="10" stroke-width="1.362"/><circle cx="45.246" cy="19.736" r="2.724" stroke-miterlimit="10" stroke-width="1.362"/><path stroke-linecap="round" stroke-linejoin="round" stroke-width="2" d="M58.075 30.374h.784"/><path stroke-linecap="round" stroke-linejoin="round" stroke-width="2" d="M50.557 30.374h.985"/><path stroke-linecap="round" stroke-linejoin="round" stroke-width="2" d="M34.48 30.374h9.442"/><path stroke-linecap="round" stroke-linejoin="round" stroke-width="2" d="M27.183 30.374h.702"/><path stroke-linecap="round" stroke-linejoin="round" stroke-width="2" d="M12.859 30.374h7.775"/><circle cx="23.931" cy="30.374" r="2.724" stroke-miterlimit="10" stroke-width="1.362"/><circle cx="31.137" cy="30.374" r="2.724" stroke-miterlimit="10" stroke-width="1.362"/><circle cx="47.264" cy="30.374" r="2.724" stroke-miterlimit="10" stroke-width="1.362"/><circle cx="54.814" cy="30.374" r="2.724" stroke-miterlimit="10" stroke-width="1.362"/><path stroke-linecap="round" stroke-linejoin="round" stroke-width="2" d="M54.76 41.011h4.099"/><path stroke-linecap="round" stroke-linejoin="round" stroke-width="2" d="M44.44 41.011h3.631"/><path stroke-linecap="round" stroke-linejoin="round" stroke-width="2" d="M34.458 41.011h3.333"/><path stroke-linecap="round" stroke-linejoin="round" stroke-width="2" d="M27.252 41.011h.56"/><path stroke-linecap="round" stroke-linejoin="round" stroke-width="2" d="M12.859 41.011h7.747"/><circle cx="23.931" cy="41.011" r="2.724" stroke-miterlimit="10" stroke-width="1.362"/><circle cx="31.137" cy="41.011" r="2.724" stroke-miterlimit="10" stroke-width="1.362"/><circle cx="41.088" cy="41.011" r="2.724" stroke-miterlimit="10" stroke-width="1.362"/><circle cx="51.423" cy="41.011" r="2.724" stroke-miterlimit="10" stroke-width="1.362"/></g></svg>