<svg xmlns="http://www.w3.org/2000/svg" width="72" height="72" viewBox="0 0 72 72" preserveAspectRatio="xMidYMid meet"><path fill="#b399c8" d="M12 12h48v47.83H12z"/><g fill="none" stroke="#000" stroke-linecap="round"><path stroke-linejoin="round" stroke-width="2" d="M12 12h48v48H12z"/><path stroke-miterlimit="10" stroke-width="3" d="M52.05 41.23s-.077-3.854-3.211-3.802c0 0-3.21-.022-3.21 3.622s-3.211 3.622-3.211 3.622c-3.133.05-3.21-3.763-3.21-3.763c0-3.683-3.21-3.66-3.21-3.66c-3.134-.052-3.211 3.75-3.211 3.75c0 3.669-3.211 3.647-3.211 3.647c-3.134.05-3.211-3.776-3.211-3.776c0-3.695-3.209-3.673-3.209-3.673c-3.135-.05-3.211 3.802-3.211 3.802"/><path stroke-miterlimit="10" stroke-width="3" d="M52.05 31.36s-.077-3.854-3.211-3.802c0 0-3.21-.022-3.21 3.622s-3.211 3.622-3.211 3.622c-3.133.05-3.21-3.763-3.21-3.763c0-3.683-3.21-3.66-3.21-3.66c-3.134-.052-3.211 3.75-3.211 3.75c0 3.669-3.211 3.647-3.211 3.647c-3.134.05-3.211-3.776-3.211-3.776c0-3.695-3.209-3.673-3.209-3.673c-3.135-.05-3.211 3.802-3.211 3.802"/></g></svg>