<svg xmlns="http://www.w3.org/2000/svg" width="72" height="72" viewBox="0 0 72 72" preserveAspectRatio="xMidYMid meet"><path fill="#6a462f" d="M62.08 27.87q-.06-.203-.134-.41c-2.15-6.022-7.764-9.785-13.55-11.87a40.48 40.48 0 0 0-13.68-2.283c-.907 0-1.818.032-2.731.087a39.63 39.63 0 0 1 11.45 2.195c5.787 2.083 11.4 5.847 13.55 11.87q.074.209.134.41a4.409 4.409 0 0 1-1.557 5.013a17.33 17.33 0 0 1-5.465 2.953a56.24 56.24 0 0 1-17.84 2.983q1.228.032 2.45.032a59.52 59.52 0 0 0 20.35-3.015a17.33 17.33 0 0 0 5.466-2.953a4.409 4.409 0 0 0 1.557-5.012z"/><path fill="#a57939" d="M9.008 41.9q.06.233.134.474c2.156 6.947 7.784 11.29 13.59 13.69a35.81 35.81 0 0 0 13.72 2.633a33.34 33.34 0 0 0 19.5-5.818a20.2 20.2 0 0 0 7.601-9.872a8.818 8.818 0 0 0 .47-3.731a5.495 5.495 0 0 0-2.077-3.524a19.45 19.45 0 0 0-6.427-3.57a55.16 55.16 0 0 0-19.07-2.954a52.51 52.51 0 0 0-20.4 3.479a21.82 21.82 0 0 0-3.415 1.756a12.6 12.6 0 0 0-2.063 1.65a5.549 5.549 0 0 0-1.562 5.784z"/><path fill="#fff" d="M8.14 31.26a4.311 4.311 0 0 0 .896 4.128a3.72 3.72 0 0 0 3.249 1.255a7.3 7.3 0 0 0 2.872 7.592a6.265 6.265 0 0 0 8.082-.959a4.261 4.261 0 0 0 2.646 3.207a4.29 4.29 0 0 0 3.45-.572a6.589 6.589 0 0 0 6.005 5.03a6.495 6.495 0 0 0 6.527-5.111a3.539 3.539 0 0 0 3.775 1.275a4.157 4.157 0 0 0 2.726-2.294a6.221 6.221 0 0 0 7.605 1.14a7.42 7.42 0 0 0 3.339-7.917c1.3.473 2.204-.485 3.3-1.572c.96-.951-1.363-4.515-1.446-5.79"/><path fill="#a57939" d="M63.74 27.87q-.06-.203-.134-.41c-2.15-6.022-7.764-9.785-13.55-11.87a40.48 40.48 0 0 0-13.68-2.283a36.95 36.95 0 0 0-19.45 5.042a18.17 18.17 0 0 0-7.772 9.044a4.659 4.659 0 0 0 1.793 5.8a20.39 20.39 0 0 0 6.41 3.094a62.67 62.67 0 0 0 19.02 2.561a59.52 59.52 0 0 0 20.35-3.015a17.34 17.34 0 0 0 5.466-2.953a4.409 4.409 0 0 0 1.557-5.012z"/><ellipse cx="36.37" cy="20.08" rx="11.17" ry="2.234" fill="#6a462f"/><g><path fill="none" stroke="#000" stroke-linecap="round" stroke-linejoin="round" stroke-miterlimit="7" stroke-width="2" d="M10.6 37.96q-.206.162-.404.334a4.407 4.407 0 0 0-1.557 5.01q.06.203.134.41c2.149 6.019 7.76 9.78 13.55 11.86a40.47 40.47 0 0 0 13.68 2.282a36.93 36.93 0 0 0 19.44-5.04a18.16 18.16 0 0 0 7.769-9.038a4.465 4.465 0 0 0-.865-4.95"/><ellipse cx="35.99" cy="20.91" rx="11.17" ry="2.233" fill="none" stroke="#000" stroke-miterlimit="7" stroke-width="2"/><path fill="none" stroke="#000" stroke-miterlimit="7" stroke-width="2" d="M63.35 28.7q-.06-.203-.134-.41c-2.15-6.019-7.761-9.78-13.55-11.86a40.47 40.47 0 0 0-13.68-2.282a36.93 36.93 0 0 0-19.44 5.04a18.16 18.16 0 0 0-7.77 9.038a4.657 4.657 0 0 0 1.794 5.798a20.38 20.38 0 0 0 6.408 3.092a62.64 62.64 0 0 0 19.01 2.56a59.49 59.49 0 0 0 20.34-3.015a17.33 17.33 0 0 0 5.462-2.952a4.407 4.407 0 0 0 1.556-5.01z"/><circle cx="23.18" cy="28.33" r=".827" fill="#000"/><circle cx="31.45" cy="28.33" r=".827" fill="#000"/><circle cx="19.87" cy="23.37" r=".827" fill="#000"/><circle cx="29.79" cy="33.29" r=".827" fill="#000"/><circle cx="14.91" cy="28.33" r=".827" fill="#000"/><circle cx="39.71" cy="31.63" r=".827" fill="#000"/><circle cx="39.71" cy="26.67" r=".827" fill="#000"/><circle cx="44.67" cy="34.94" r=".827" fill="#000"/><circle cx="47.98" cy="26.67" r=".827" fill="#000"/><circle cx="51.28" cy="29.98" r=".827" fill="#000"/><circle cx="52.94" cy="21.71" r=".827" fill="#000"/><circle cx="56.24" cy="26.67" r=".827" fill="#000"/><path fill="none" stroke="#000" stroke-linecap="round" stroke-linejoin="round" stroke-miterlimit="7" stroke-width="2" d="M16.01 44.42a6.232 6.232 0 0 0 7.656-.83a3.874 3.874 0 0 0 2.515 2.847a4.296 4.296 0 0 0 3.269-.5a6.19 6.19 0 0 0 5.702 4.47a6.052 6.052 0 0 0 6.173-4.51a3.501 3.501 0 0 0 3.581 1.138a3.855 3.855 0 0 0 2.578-2.025a6.211 6.211 0 0 0 7.209 1.028"/><circle cx="22.56" cy="33.29" r=".827" fill="#000"/></g></svg>